#N canvas 788 171 741 580 10;
#X text 3 41 This represents the input oscillator/waveform;
#X obj 254 111 loadbang;
#X obj 257 147 metro 500;
#N canvas 0 0 450 300 (subpatch) 0;
#X array \$0-inputOSC 100 float 0 black black;
#X coords 0 -1 99 1 200 140 1;
#X restore 448 53 graph;
#X obj 139 94 osc~ 1000;
#X floatatom 63 81 5 0 0 0 - - -, f 5;
#X obj 365 10 pddp/dsp;
#X obj 243 190 tabwrite~ \$0-inputOSC;
#X connect 1 0 2 0;
#X connect 2 0 7 0;
#X connect 4 0 7 0;
#X connect 5 0 4 0;
