#N canvas 788 171 741 580 10;
#X text 3 41 This represents the input oscillator/waveform;
#X obj 254 111 loadbang;
#X obj 257 147 metro 500;
#N canvas 0 0 450 300 (subpatch) 0;
#X array \$0-inputOSC 100 float 0 black black;
#X coords 0 -1 99 1 200 140 1;
#X restore 448 53 graph;
#X obj 139 94 osc~ 1000;
#X floatatom 63 81 5 0 0 0 - - -, f 5;
#X obj 365 10 pddp/dsp;
#X obj 243 190 tabwrite~ \$0-inputOSC;
#X obj 212 411 dac~ 1;
#X obj 212 381 *~;
#X obj 226 353 line~;
#X msg 226 297 0.1 100;
#X msg 245 322 0 100;
#X text 297 292 on;
#X text 294 321 off;
#X text 263 346 envelope;
#X text 263 359 generator;
#X text 210 272 amplitude controls:;
#X text 209 428 audio output;
#X obj 247 69 bng 15 250 50 0 empty empty empty 17 7 0 10 -262144 -1
-1;
#X connect 1 0 2 0;
#X connect 2 0 7 0;
#X connect 4 0 7 0;
#X connect 4 0 9 0;
#X connect 5 0 4 0;
#X connect 9 0 8 0;
#X connect 10 0 9 1;
#X connect 11 0 10 0;
#X connect 12 0 10 0;
#X connect 19 0 2 0;
