#N canvas -88 305 1401 852 10;
#X obj 272 450 metro 500;
#X floatatom 200 130 5 0 100 0 - - -, f 5;
#X obj 90 16 pddp/dsp;
#X floatatom 202 193 5 0 0 0 - - -, f 5;
#X floatatom 203 254 5 0 0 0 - - -, f 5;
#X floatatom 203 320 5 0 0 0 - - -, f 5;
#N canvas 0 22 450 300 (subpatch) 0;
#X array \$0-output 100 float 0 black black;
#X coords 0 -1 99 1 400 200 1;
#X restore 971 125 graph;
#X obj 258 493 tabwrite~ \$0-output;
#X floatatom 238 89 5 0 0 0 - - -, f 5;
#X obj 248 131 *~;
#X floatatom 245 167 5 0 0 0 - - -, f 5;
#X obj 245 194 *~;
#X floatatom 245 227 5 0 0 0 - - -, f 5;
#X obj 245 254 *~;
#X floatatom 243 294 5 0 0 0 - - -, f 5;
#X obj 243 321 *~;
#X obj 296 196 osc~;
#X obj 283 256 osc~;
#X obj 285 321 osc~;
#X obj 889 200 vu 15 120 empty empty -1 -8 0 10 -66577 -1 1 0;
#X obj 203 458 s~ VU;
#X obj 885 96 r~ VU;
#X obj 881 127 env~;
#X obj 880 159 - 100;
#X obj 378 129 *~;
#X obj 379 197 *~;
#X obj 377 269 *~;
#X obj 377 339 *~, f 4;
#X obj 411 80 vsl 14 61 0 0.1 0 0 empty empty empty 0 -9 0 10 -262144
-1 -1 6000 1;
#X obj 411 149 vsl 14 61 0 0.1 0 0 empty empty empty 0 -9 0 10 -262144
-1 -1 5750 1;
#X obj 411 218 vsl 14 61 0 0.1 0 0 empty empty empty 0 -9 0 10 -262144
-1 -1 4500 1;
#X obj 412 290 vsl 14 61 0 0.1 0 0 empty empty empty 0 -9 0 10 -262144
-1 -1 5100 1;
#X obj 579 266 dac~ 1;
#X obj 579 236 *~;
#X obj 593 208 line~;
#X msg 593 152 0.1 100;
#X msg 612 177 0 100;
#X text 664 147 on;
#X text 661 176 off;
#X text 630 201 envelope;
#X text 630 214 generator;
#X text 577 127 amplitude controls:;
#X text 576 283 audio output;
#X text 225 70 Fine Control;
#X text 109 131 Coarse Control;
#X obj 298 130 osc~;
#X text 433 78 Volume(gain);
#N canvas 899 368 662 462 fft 0;
#N canvas 0 22 450 300 (subpatch) 0;
#X array fft 881 float 0 black black;
#X coords 0 5 880 -5 200 140 1;
#X restore 362 173 graph;
#X obj 47 74 rfft~;
#X obj 47 107 *~;
#X obj 78 107 *~;
#X obj 47 137 sqrt~;
#X obj 360 91 block~ 4096 1;
#X obj 47 163 biquad~ 0 0 0 0 1;
#X text 111 75 Fourier series;
#X text 116 128 magnitude;
#X text 114 113 calculate;
#X text 210 148 delay two samples;
#X text 209 164 for better graphing;
#X obj 47 221 tabwrite~ fft;
#X obj 54 24 inlet~;
#X obj 205 260 loadbang;
#X obj 208 298 metro 500;
#X connect 1 0 2 0;
#X connect 1 0 2 1;
#X connect 1 1 3 0;
#X connect 1 1 3 1;
#X connect 2 0 4 0;
#X connect 3 0 4 0;
#X connect 4 0 6 0;
#X connect 6 0 12 0;
#X connect 13 0 1 0;
#X connect 14 0 15 0;
#X connect 15 0 12 0;
#X restore 521 490 pd fft;
#X connect 0 0 7 0;
#X connect 1 0 9 0;
#X connect 3 0 11 0;
#X connect 4 0 13 0;
#X connect 5 0 15 0;
#X connect 8 0 9 1;
#X connect 9 0 45 0;
#X connect 10 0 11 1;
#X connect 11 0 16 0;
#X connect 12 0 13 1;
#X connect 13 0 17 0;
#X connect 14 0 15 1;
#X connect 15 0 18 0;
#X connect 16 0 25 0;
#X connect 17 0 26 0;
#X connect 18 0 27 0;
#X connect 21 0 22 0;
#X connect 22 0 23 0;
#X connect 23 0 19 0;
#X connect 24 0 7 0;
#X connect 24 0 20 0;
#X connect 24 0 33 0;
#X connect 25 0 7 0;
#X connect 25 0 33 0;
#X connect 25 0 20 0;
#X connect 26 0 33 0;
#X connect 26 0 20 0;
#X connect 27 0 33 0;
#X connect 27 0 20 0;
#X connect 28 0 24 1;
#X connect 29 0 25 1;
#X connect 30 0 26 1;
#X connect 31 0 27 1;
#X connect 33 0 32 0;
#X connect 34 0 33 1;
#X connect 35 0 34 0;
#X connect 36 0 34 0;
#X connect 45 0 24 0;
#X connect 45 0 47 0;
